-
 
http://www.Speed. Cd       the fast  and The Hottest Private Tracker on the net 
http://www.Speed. Cd

Please Seed back to make the speed Faster!!
 ............ NFO .............
-
 
http://www.Speed. Cd[IMG]http://i.imgur.com/4cftR2e.jpg[/IMG]

VAiN . P R E S E N T S . . .

Oblivion 2013 CAM READNFO XViD - VAiN

iMDB........: http://www.imdb.com/title/tt1483013/
PLOT........: A veteran assigned to extract Earth's 
remaining resources begins to question what he knows 
about his mission and himself. 


T E C H N i C A L . i N F O . . .      
General
Complete name                            : Oblivion 2013 CAM READNFO XViD - VAiNOblivion 2013 CAM READNFO XViD - VAiN.avi
Format                                   : AVI
Format/Info                              : Audio Video Interleave
File size                                : 1.38 GiB
Duration                                 : 1h 57mn
Overall bit rate                         : 1 693 Kbps
Writing application                      : VirtualDubMod 1.5.10.2 (build 2540/release)
Writing library                          : VirtualDubMod build 2540/release

Video
ID                                       : 0
Format                                   : MPEG-4 Visual
Format profile                           : Advanced Simple@L5
Format settings, BVOP                    : 2
Format settings, QPel                    : No
Format settings, GMC                     : No warppoints
Format settings, Matrix                  : Default (MPEG)
Muxing mode                              : Packed bitstream
Codec ID                                 : XVID
Codec ID/Hint                            : XviD
Duration                                 : 1h 57mn
Bit rate                                 : 1 555 Kbps
Width                                    : 720 pixels
Height                                   : 272 pixels
Display aspect ratio                     : 2.647
Frame rate                               : 25.000 fps
Color space                              : YUV
Chroma subsampling                       : 4:2:0
Bit depth                                : 8 bits
Scan type                                : Progressive
Compression mode                         : Lossy
Bits/(Pixel*Frame)                       : 0.318
Stream size                              : 1.27 GiB (92%)
Writing library                          : XviD 64

Audio
ID                                       : 1
Format                                   : MPEG Audio
Format version                           : Version 1
Format profile                           : Layer 3
Mode                                     : Joint stereo
Mode extension                           : MS Stereo
Codec ID                                 : 55
Codec ID/Hint                            : MP3
Duration                                 : 1h 57mn
Bit rate mode                            : Constant
Bit rate                                 : 128 Kbps
Channel(s)                               : 2 channels
Sampling rate                            : 44.1 KHz
Compression mode                         : Lossy
Stream size                              : 107 MiB (8%)
Alignment                                : Split accross interleaves
Interleave, duration                     : 40 ms (1.00 video frame)
Interleave, preload duration             : 500 ms
Writing library                          : LAME3.99r
Encoding settings                        : -m j -V 4 -q 2 -lowpass 17 -b 128





E N C O D E R S . N O T E S . . .       

SOURCE......: Oblivion.2013.HDCam.FOX
SAMPLE......: Yes
ADDED NOTE..: Tweaked lots of things,
              check the sample first,
              Enjoy...

READNDFO....: blurred the different watermarks when they appear,
              am no expert at blurring, but i tried.


S C R E E N . S H O T S . . .

[IMG]http://i.imgur.com/CHapdiO.png[/IMG]

[IMG]http://i.imgur.com/nlNRRQ8.png[/IMG]

[IMG]http://i.imgur.com/jcOxZ8m.png[/IMG]

[IMG]http://i.imgur.com/7hXDlDl.png[/IMG]

[IMG]http://i.imgur.com/0urzquF.png[/IMG]

[IMG]http://i.imgur.com/aAjIl0c.png[/IMG]

[IMG]http://i.imgur.com/OoRpBv0.png[/IMG]

[IMG]http://i.imgur.com/irb5W8N.jpg[/IMG]